# xmcd
#
# Track frame offsets:
#	150
#	20867
#	40842
#	57560
#	75120
#	96242
#	114327
#	128520
#	142250
#	160170
#	179845
#	198070
#	216785
#	233397
#	254652
#
# Disc length: 3637 seconds
#
# Revision: 0
# Processed by: cddbd v1.4PL0 Copyright (c) Steve Scherf et al.
# Submitted via: dBpowerAMP V4.0
#
DISCID=cd0e330f
DTITLE=Graham Lyle - Somethin Beautiful Remains
DYEAR=2003
DGENRE=Blues
TTITLE0=Something Beautiful Remains
TTITLE1=My Father's Son
TTITLE2=Joe Knows How To Live
TTITLE3=I Don't Wanna Loose You
TTITLE4=Pat
TTITLE5=Maybe Your Baby's Got The Blues
TTITLE6=Nicole
TTITLE7=Earthbound
TTITLE8=Darlin' Man
TTITLE9=Didn't We
TTITLE10=The Younger Man
TTITLE11=Button Off my Shirt
TTITLE12=I Should Have Known Better
TTITLE13=Typical Male
TTITLE14=What's Love Got To do With It
EXTD=
EXTT0=
EXTT1=
EXTT2=
EXTT3=
EXTT4=
EXTT5=
EXTT6=
EXTT7=
EXTT8=
EXTT9=
EXTT10=
EXTT11=
EXTT12=
EXTT13=
EXTT14=
PLAYORDER=
